<svg id="visual" viewBox="0 0 900 900" width="900" height="900" xmlns="http://www.w3.org/2000/svg" xmlns:xlink="http://www.w3.org/1999/xlink" version="1.1"><rect x="0" y="0" width="900" height="900" fill="#fff"></rect><defs><linearGradient id="grad1_0" x1="0%" y1="0%" x2="100%" y2="100%"><stop offset="30%" stop-color="#ffffff" stop-opacity="1"></stop><stop offset="70%" stop-color="#ffffff" stop-opacity="1"></stop></linearGradient></defs><defs><linearGradient id="grad2_0" x1="0%" y1="0%" x2="100%" y2="100%"><stop offset="30%" stop-color="#ffffff" stop-opacity="1"></stop><stop offset="70%" stop-color="#ffffff" stop-opacity="1"></stop></linearGradient></defs><g transform="translate(900, 0)"><path d="M0 540.9C-58.4 500.3 -116.7 459.7 -180.6 436.1C-244.5 412.5 -314 406 -371.2 371.2C-428.5 336.5 -473.5 273.6 -499.8 207C-526 140.4 -533.5 70.2 -540.9 0L0 0Z" fill="#2fc32f"></path></g><g transform="translate(0, 900)"><path d="M0 -540.9C48.4 -483.7 96.8 -426.6 169.9 -410.2C243 -393.8 340.8 -418.3 382.5 -382.5C424.2 -346.7 409.8 -250.6 426.8 -176.8C443.9 -103 492.4 -51.5 540.9 0L0 0Z" fill="#2fc32f"></path></g></svg>