<svg id="visual" viewBox="0 0 675 900" width="675" height="900" xmlns="http://www.w3.org/2000/svg" xmlns:xlink="http://www.w3.org/1999/xlink" version="1.1"><rect x="0" y="0" width="675" height="900" fill="#fff"></rect><defs><linearGradient id="grad1_0" x1="0%" y1="0%" x2="100%" y2="100%"><stop offset="30%" stop-color="#ffffff" stop-opacity="1"></stop><stop offset="70%" stop-color="#ffffff" stop-opacity="1"></stop></linearGradient></defs><defs><linearGradient id="grad2_0" x1="0%" y1="0%" x2="100%" y2="100%"><stop offset="30%" stop-color="#ffffff" stop-opacity="1"></stop><stop offset="70%" stop-color="#ffffff" stop-opacity="1"></stop></linearGradient></defs><g transform="translate(675, 0)"><path d="M0 478.1C-51.4 444.5 -102.9 410.9 -162.6 392.6C-222.4 374.4 -290.6 371.6 -338.1 338.1C-385.6 304.6 -412.5 240.5 -432.4 179.1C-452.3 117.6 -465.2 58.8 -478.1 0L0 0Z" fill="#2fc32f"></path></g><g transform="translate(0, 900)"><path d="M0 -478.1C67.7 -476.4 135.4 -474.7 183 -441.7C230.6 -408.8 258 -344.6 297.7 -297.7C337.3 -250.8 389.2 -221.2 421.3 -174.5C453.4 -127.8 465.8 -63.9 478.1 0L0 0Z" fill="#2fc32f"></path></g></svg>