<svg id="visual" viewBox="0 0 960 540" width="960" height="540" xmlns="http://www.w3.org/2000/svg" xmlns:xlink="http://www.w3.org/1999/xlink" version="1.1"><rect x="0" y="0" width="960" height="540" fill="#fff"></rect><defs><linearGradient id="grad1_0" x1="43.8%" y1="0%" x2="100%" y2="100%"><stop offset="14.444444444444446%" stop-color="#ffffff" stop-opacity="1"></stop><stop offset="85.55555555555554%" stop-color="#ffffff" stop-opacity="1"></stop></linearGradient></defs><defs><linearGradient id="grad2_0" x1="0%" y1="0%" x2="56.3%" y2="100%"><stop offset="14.444444444444446%" stop-color="#ffffff" stop-opacity="1"></stop><stop offset="85.55555555555554%" stop-color="#ffffff" stop-opacity="1"></stop></linearGradient></defs><g transform="translate(960, 0)"><path d="M0 459C-57.5 432.9 -114.9 406.8 -153.8 371.4C-192.8 336 -213.2 291.4 -261.6 261.6C-310.1 231.8 -386.5 216.8 -424.1 175.7C-461.6 134.5 -460.3 67.3 -459 0L0 0Z" fill="#2fc32f"></path></g><g transform="translate(0, 540)"><path d="M0 -459C57.6 -435.3 115.2 -411.6 156.9 -378.8C198.6 -345.9 224.6 -303.9 272.2 -272.2C319.9 -240.6 389.3 -219.3 424.1 -175.7C458.8 -132 458.9 -66 459 0L0 0Z" fill="#2fc32f"></path></g></svg>