<svg id="visual" viewBox="0 0 900 900" width="900" height="900" xmlns="http://www.w3.org/2000/svg" xmlns:xlink="http://www.w3.org/1999/xlink" version="1.1"><rect x="0" y="0" width="900" height="900" fill="#fff"></rect><g transform="translate(863.1024369949073 88.86854843340882)"><path d="M153.7 -252.4C251.1 -209.9 417.8 -273.7 491.6 -249.4C565.4 -225 546.2 -112.5 523.8 -12.9C501.4 86.7 475.9 173.3 418 225.2C360.1 277 269.8 293.9 194.7 325.4C119.7 356.9 59.8 403 9.4 386.7C-41 370.3 -82 291.7 -123.7 240.9C-165.4 190.2 -207.9 167.3 -269.5 131.8C-331.2 96.3 -412.1 48.2 -447.5 -20.4C-482.8 -89 -472.6 -178 -445.8 -273.8C-419 -369.7 -375.5 -472.4 -298.4 -526.5C-221.3 -580.7 -110.7 -586.3 -41.3 -514.9C28.1 -443.4 56.3 -294.8 153.7 -252.4" fill="#2fc32f"></path></g></svg>