<svg id="visual" viewBox="0 0 675 900" width="675" height="900" xmlns="http://www.w3.org/2000/svg" xmlns:xlink="http://www.w3.org/1999/xlink" version="1.1"><rect x="0" y="0" width="675" height="900" fill="#fff"></rect><path d="M0 235L16 243C32 251 64 267 96.2 287.8C128.3 308.7 160.7 334.3 192.8 335.8C225 337.3 257 314.7 289.2 303.7C321.3 292.7 353.7 293.3 385.8 282.3C418 271.3 450 248.7 482.2 257.7C514.3 266.7 546.7 307.3 578.8 319.7C611 332 643 316 659 308L675 300L675 0L659 0C643 0 611 0 578.8 0C546.7 0 514.3 0 482.2 0C450 0 418 0 385.8 0C353.7 0 321.3 0 289.2 0C257 0 225 0 192.8 0C160.7 0 128.3 0 96.2 0C64 0 32 0 16 0L0 0Z" fill="#a0ffa0"></path><path d="M0 201L16 200.7C32 200.3 64 199.7 96.2 198.8C128.3 198 160.7 197 192.8 207.8C225 218.7 257 241.3 289.2 254.2C321.3 267 353.7 270 385.8 268.7C418 267.3 450 261.7 482.2 261C514.3 260.3 546.7 264.7 578.8 261.7C611 258.7 643 248.3 659 243.2L675 238L675 0L659 0C643 0 611 0 578.8 0C546.7 0 514.3 0 482.2 0C450 0 418 0 385.8 0C353.7 0 321.3 0 289.2 0C257 0 225 0 192.8 0C160.7 0 128.3 0 96.2 0C64 0 32 0 16 0L0 0Z" fill="#87f086"></path><path d="M0 158L16 167.2C32 176.3 64 194.7 96.2 199.8C128.3 205 160.7 197 192.8 192.3C225 187.7 257 186.3 289.2 176.8C321.3 167.3 353.7 149.7 385.8 150.2C418 150.7 450 169.3 482.2 182.8C514.3 196.3 546.7 204.7 578.8 211.7C611 218.7 643 224.3 659 227.2L675 230L675 0L659 0C643 0 611 0 578.8 0C546.7 0 514.3 0 482.2 0C450 0 418 0 385.8 0C353.7 0 321.3 0 289.2 0C257 0 225 0 192.8 0C160.7 0 128.3 0 96.2 0C64 0 32 0 16 0L0 0Z" fill="#6ee16b"></path><path d="M0 112L16 120.7C32 129.3 64 146.7 96.2 156.7C128.3 166.7 160.7 169.3 192.8 161.3C225 153.3 257 134.7 289.2 129C321.3 123.3 353.7 130.7 385.8 131.5C418 132.3 450 126.7 482.2 131C514.3 135.3 546.7 149.7 578.8 156.7C611 163.7 643 163.3 659 163.2L675 163L675 0L659 0C643 0 611 0 578.8 0C546.7 0 514.3 0 482.2 0C450 0 418 0 385.8 0C353.7 0 321.3 0 289.2 0C257 0 225 0 192.8 0C160.7 0 128.3 0 96.2 0C64 0 32 0 16 0L0 0Z" fill="#52d24f"></path><path d="M0 94L16 89.8C32 85.7 64 77.3 96.2 78.8C128.3 80.3 160.7 91.7 192.8 95.5C225 99.3 257 95.7 289.2 87.5C321.3 79.3 353.7 66.7 385.8 63.2C418 59.7 450 65.3 482.2 69.2C514.3 73 546.7 75 578.8 79.5C611 84 643 91 659 94.5L675 98L675 0L659 0C643 0 611 0 578.8 0C546.7 0 514.3 0 482.2 0C450 0 418 0 385.8 0C353.7 0 321.3 0 289.2 0C257 0 225 0 192.8 0C160.7 0 128.3 0 96.2 0C64 0 32 0 16 0L0 0Z" fill="#2fc32f"></path></svg>