<svg id="visual" viewBox="0 0 960 540" width="960" height="540" xmlns="http://www.w3.org/2000/svg" xmlns:xlink="http://www.w3.org/1999/xlink" version="1.1"><rect x="0" y="0" width="960" height="540" fill="#fff"></rect><path d="M658 540L632 527.2C606 514.3 554 488.7 529 463C504 437.3 506 411.7 533.2 386C560.3 360.3 612.7 334.7 646.3 308.8C680 283 695 257 658.7 231.2C622.3 205.3 534.7 179.7 498.8 154C463 128.3 479 102.7 492.5 77C506 51.3 517 25.7 522.5 12.8L528 0L960 0L960 12.8C960 25.7 960 51.3 960 77C960 102.7 960 128.3 960 154C960 179.7 960 205.3 960 231.2C960 257 960 283 960 308.8C960 334.7 960 360.3 960 386C960 411.7 960 437.3 960 463C960 488.7 960 514.3 960 527.2L960 540Z" fill="#2fc32f" stroke-linecap="round" stroke-linejoin="miter"></path></svg>